# xmcd
#
# Track frame offsets:
#	150
#	12592
#	27969
#	37633
#	49637
#	61018
#	71716
#	84310
#	97393
#	106067
#	118477
#	129233
#	140810
#	152270
#	161316
#	170353
#	180084
#	190746
#	200555
#	209789
#	223046
#	234691
#	245421
#	255122
#
# Disc length: 3523 seconds
#
# Revision: 1
# Processed by: cddbd v1.5.2PL0 Copyright (c) Steve Scherf et al.
# Submitted via: audiograbber 1.83.01
#
DISCID=440dc118
DTITLE=ferlin husky - songs of the home and heart (1956) sittin' on the rainbow
DTITLE=(1958)
DYEAR=2013
DGENRE=Country
TTITLE0=hang you head in shame
TTITLE1=that silver haired daddy of mine
TTITLE2=i can't go on this way
TTITLE3=that little boy of mine
TTITLE4=farther and farther apart
TTITLE5=never have, never will
TTITLE6=i dreamed of an old love affair
TTITLE7=daddy's little girl
TTITLE8=you make me feel funny, honey
TTITLE9=rockin' alone in an old rockin' chair
TTITLE10=honky tonkin' party girl
TTITLE11=useless
TTITLE12=i've got the world on a string
TTITLE13=i love my baby
TTITLE14=love (your spell is everywhere)
TTITLE15=breezin' along with me breeze
TTITLE16=i'm in the mood for love
TTITLE17=when my sugar walks down the street
TTITLE18=blue skies
TTITLE19=my best girl
TTITLE20=love is the sweetest thing
TTITLE21=i'm sittin' on top of the world
TTITLE22=(i love you) for sentimental reason
TTITLE23=ain't she sweet
EXTD=
EXTT0=
EXTT1=
EXTT2=
EXTT3=
EXTT4=
EXTT5=
EXTT6=
EXTT7=
EXTT8=
EXTT9=
EXTT10=
EXTT11=
EXTT12=
EXTT13=
EXTT14=
EXTT15=
EXTT16=
EXTT17=
EXTT18=
EXTT19=
EXTT20=
EXTT21=
EXTT22=
EXTT23=
PLAYORDER=
